<svg xmlns="http://www.w3.org/2000/svg" xmlns:xlink="http://www.w3.org/1999/xlink" width="500" zoomAndPan="magnify" viewBox="0 0 375 374.999991" height="500" preserveAspectRatio="xMidYMid meet" version="1.0"><defs><g/></defs><g fill="#4a73a8" fill-opacity="1"><g transform="translate(8.629694, 275.064442)"><g><path d="M 29.90625 -0.234375 C 23.84375 0.554688 19.015625 -0.441406 15.421875 -3.234375 C 11.835938 -6.023438 9.164062 -9.769531 7.40625 -14.46875 C 5.65625 -19.175781 4.539062 -24.125 4.0625 -29.3125 C 3.582031 -34.5 3.425781 -39.164062 3.59375 -43.3125 C 4.382812 -57.820312 4.78125 -72.253906 4.78125 -86.609375 C 4.78125 -100.972656 5.101562 -115.332031 5.75 -129.6875 C 6.0625 -135.269531 6.335938 -140.890625 6.578125 -146.546875 C 6.816406 -152.210938 7.613281 -157.398438 8.96875 -162.109375 C 10.320312 -166.816406 12.753906 -170.6875 16.265625 -173.71875 C 19.773438 -176.75 24.960938 -178.34375 31.828125 -178.5 C 39.484375 -178.820312 47.695312 -178.421875 56.46875 -177.296875 C 65.238281 -176.179688 73.570312 -174.066406 81.46875 -170.953125 C 89.363281 -167.847656 96.0625 -163.34375 101.5625 -157.4375 C 107.070312 -151.539062 110.382812 -143.882812 111.5 -134.46875 C 112.300781 -127.769531 111.382812 -121.585938 108.75 -115.921875 C 106.125 -110.265625 102.457031 -105.242188 97.75 -100.859375 C 93.039062 -96.472656 87.972656 -92.601562 82.546875 -89.25 C 78.722656 -86.851562 74.097656 -84.859375 68.671875 -83.265625 C 63.242188 -81.671875 58.859375 -79.4375 55.515625 -76.5625 C 52.484375 -73.851562 50.40625 -70.34375 49.28125 -66.03125 C 48.164062 -61.726562 47.566406 -57.300781 47.484375 -52.75 C 47.410156 -48.207031 47.375 -44.101562 47.375 -40.4375 C 47.375 -36.925781 47.332031 -32.976562 47.25 -28.59375 C 47.175781 -24.207031 46.660156 -19.976562 45.703125 -15.90625 C 44.742188 -11.84375 43.023438 -8.375 40.546875 -5.5 C 38.078125 -2.632812 34.53125 -0.878906 29.90625 -0.234375 Z M 61.5 -105.515625 C 69.789062 -108.066406 74.097656 -113.890625 74.421875 -122.984375 C 74.734375 -127.140625 73.8125 -131.367188 71.65625 -135.671875 C 69.507812 -139.984375 66.519531 -143.175781 62.6875 -145.25 C 58.695312 -147.320312 55.828125 -147.640625 54.078125 -146.203125 C 52.328125 -144.765625 51.25 -142.367188 50.84375 -139.015625 C 50.445312 -135.671875 50.367188 -132.125 50.609375 -128.375 C 50.847656 -124.625 50.96875 -121.394531 50.96875 -118.6875 C 50.8125 -115.332031 50.691406 -112.414062 50.609375 -109.9375 C 50.523438 -107.46875 51.238281 -105.796875 52.75 -104.921875 C 54.269531 -104.046875 57.1875 -104.242188 61.5 -105.515625 Z M 61.5 -105.515625 "/></g></g></g><g fill="#4a73a8" fill-opacity="1"><g transform="translate(106.73178, 275.064442)"><g><path d="M 79.6875 -3.828125 C 72.820312 -1.273438 65.519531 0 57.78125 0 C 50.050781 0 42.914062 -1.4375 36.375 -4.3125 C 28.238281 -7.976562 22.453125 -13.082031 19.015625 -19.625 C 15.585938 -26.164062 12.679688 -33.421875 10.296875 -41.390625 C 7.578125 -50.484375 5.617188 -60.015625 4.421875 -69.984375 C 3.222656 -79.953125 3.421875 -89.5625 5.015625 -98.8125 C 6.617188 -108.070312 10.210938 -116.367188 15.796875 -123.703125 C 21.378906 -131.046875 29.515625 -136.628906 40.203125 -140.453125 C 51.367188 -144.441406 62.09375 -145.554688 72.375 -143.796875 C 82.664062 -142.046875 91.476562 -137.617188 98.8125 -130.515625 C 106.15625 -123.421875 110.945312 -113.894531 113.1875 -101.9375 C 114.613281 -93.800781 115.367188 -84.828125 115.453125 -75.015625 C 115.535156 -65.203125 114.457031 -55.507812 112.21875 -45.9375 C 109.988281 -36.363281 106.238281 -27.789062 100.96875 -20.21875 C 95.707031 -12.644531 88.613281 -7.179688 79.6875 -3.828125 Z M 50.25 -36.125 C 54.875 -31.5 59.140625 -29.304688 63.046875 -29.546875 C 66.953125 -29.785156 70.34375 -31.617188 73.21875 -35.046875 C 76.09375 -38.484375 78.164062 -42.515625 79.4375 -47.140625 C 80.238281 -50.171875 81 -54.238281 81.71875 -59.34375 C 82.4375 -64.445312 82.796875 -69.75 82.796875 -75.25 C 82.796875 -80.757812 82.078125 -85.785156 80.640625 -90.328125 C 79.203125 -94.867188 76.804688 -98.097656 73.453125 -100.015625 C 70.109375 -101.929688 66.441406 -102.128906 62.453125 -100.609375 C 58.460938 -99.097656 54.875 -96.828125 51.6875 -93.796875 C 48.5 -90.765625 46.425781 -87.8125 45.46875 -84.9375 C 44.507812 -81.914062 43.789062 -78.128906 43.3125 -73.578125 C 42.832031 -69.035156 42.710938 -64.328125 42.953125 -59.453125 C 43.191406 -54.585938 43.867188 -50.082031 44.984375 -45.9375 C 46.097656 -41.789062 47.851562 -38.519531 50.25 -36.125 Z M 50.25 -36.125 "/></g></g></g><g fill="#4a73a8" fill-opacity="1"><g transform="translate(212.251371, 275.064442)"><g><path d="M 4.3125 -150.984375 C 3.03125 -155.773438 3.265625 -160.5625 5.015625 -165.34375 C 6.773438 -170.125 9.53125 -174.390625 13.28125 -178.140625 C 17.03125 -181.890625 21.21875 -184.40625 25.84375 -185.6875 C 27.757812 -186.164062 30.234375 -186.285156 33.265625 -186.046875 C 36.296875 -185.804688 39.328125 -185.085938 42.359375 -183.890625 C 45.390625 -182.691406 47.738281 -181.054688 49.40625 -178.984375 C 51.082031 -176.910156 51.441406 -174.359375 50.484375 -171.328125 C 52.078125 -166.535156 51.835938 -161.707031 49.765625 -156.84375 C 47.691406 -151.976562 44.582031 -147.75 40.4375 -144.15625 C 36.289062 -140.570312 31.785156 -138.140625 26.921875 -136.859375 C 22.054688 -135.585938 17.546875 -135.988281 13.390625 -138.0625 C 9.242188 -140.132812 6.21875 -144.441406 4.3125 -150.984375 Z M 35.65625 -3.34375 C 30.382812 0.320312 25.273438 1.039062 20.328125 -1.1875 C 15.390625 -3.425781 11.644531 -7.175781 9.09375 -12.4375 C 6.695312 -17.539062 5.140625 -23.398438 4.421875 -30.015625 C 3.703125 -36.640625 3.460938 -43.539062 3.703125 -50.71875 C 3.941406 -57.90625 4.378906 -64.925781 5.015625 -71.78125 C 5.660156 -78.644531 6.222656 -84.707031 6.703125 -89.96875 C 7.015625 -93.320312 7.332031 -97.191406 7.65625 -101.578125 C 7.976562 -105.960938 8.695312 -110.304688 9.8125 -114.609375 C 10.925781 -118.921875 12.679688 -122.351562 15.078125 -124.90625 C 18.585938 -128.570312 22.253906 -130.285156 26.078125 -130.046875 C 29.910156 -129.804688 33.539062 -128.367188 36.96875 -125.734375 C 40.394531 -123.109375 42.988281 -119.800781 44.75 -115.8125 C 48.738281 -107.195312 51.007812 -97.582031 51.5625 -86.96875 C 52.125 -76.363281 51.6875 -65.71875 50.25 -55.03125 C 48.8125 -44.34375 47.21875 -34.535156 45.46875 -25.609375 C 44.664062 -21.617188 43.742188 -17.585938 42.703125 -13.515625 C 41.671875 -9.453125 39.320312 -6.0625 35.65625 -3.34375 Z M 35.65625 -3.34375 "/></g></g></g><g fill="#4a73a8" fill-opacity="1"><g transform="translate(253.88451, 275.064442)"><g><path d="M 59.34375 0 C 54.71875 0 51.085938 -1.113281 48.453125 -3.34375 C 45.816406 -5.582031 43.898438 -8.492188 42.703125 -12.078125 C 41.515625 -15.671875 40.835938 -19.460938 40.671875 -23.453125 C 40.515625 -27.441406 40.515625 -31.109375 40.671875 -34.453125 C 41.148438 -47.859375 41.867188 -61.179688 42.828125 -74.421875 C 43.785156 -87.660156 44.023438 -101.054688 43.546875 -114.609375 C 39.242188 -114.453125 34.578125 -114.332031 29.546875 -114.25 C 24.523438 -114.175781 19.820312 -114.972656 15.4375 -116.640625 C 11.050781 -118.316406 7.738281 -121.46875 5.5 -126.09375 C 3.269531 -130.726562 2.910156 -135.515625 4.421875 -140.453125 C 5.941406 -145.398438 9.09375 -148.910156 13.875 -150.984375 C 17.539062 -152.742188 22.125 -153.421875 27.625 -153.015625 C 33.132812 -152.617188 38.71875 -151.984375 44.375 -151.109375 C 50.039062 -150.234375 54.867188 -149.632812 58.859375 -149.3125 C 65.722656 -148.988281 72.984375 -148.90625 80.640625 -149.0625 C 88.296875 -149.226562 95.3125 -147.796875 101.6875 -144.765625 C 104.5625 -143.484375 106.992188 -141.488281 108.984375 -138.78125 C 110.984375 -136.070312 112.140625 -133.117188 112.453125 -129.921875 C 112.773438 -126.734375 111.820312 -123.707031 109.59375 -120.84375 C 107.519531 -118.125 104.367188 -116.328125 100.140625 -115.453125 C 95.910156 -114.578125 91.519531 -114.175781 86.96875 -114.25 C 82.425781 -114.332031 78.5625 -114.375 75.375 -114.375 C 75.851562 -111.1875 76.648438 -106.203125 77.765625 -99.421875 C 78.878906 -92.640625 79.953125 -84.984375 80.984375 -76.453125 C 82.023438 -67.921875 82.625 -59.226562 82.78125 -50.375 C 82.945312 -41.519531 82.390625 -33.300781 81.109375 -25.71875 C 79.835938 -18.144531 77.484375 -12.003906 74.046875 -7.296875 C 70.617188 -2.585938 65.71875 -0.15625 59.34375 0 Z M 59.34375 0 "/></g></g></g></svg>